<svg width="250" height="250" viewBox="0 0 250 250" >
<path d="M58.8706 44.7285C76.8444 29.9043 99.8824 21 125 21V0C94.082 0 65.7857 11.2251 43.9643 29.8221L58.8706 44.7285Z" fill="black"/>
<path d="M36.6117 36.6116L51.4609 51.4609C34.8512 68.0706 23.8336 90.2724 21.4746 115H0.39418C2.8108 84.4695 16.197 57.0263 36.6117 36.6116Z" fill="black"/>
<path d="M21 125C21 153.719 32.6406 179.719 51.4609 198.539L36.6117 213.388C13.9911 190.768 0 159.518 0 125H21Z" fill="black"/>
<path d="M125 250C94.082 250 65.7857 238.775 43.9643 220.178L58.8706 205.271C76.8444 220.096 99.8824 229 125 229V250Z" fill="black"/>
<path d="M213.388 213.388L198.539 198.539C181.929 215.149 159.728 226.166 135 228.525V249.606C165.531 247.189 192.974 233.803 213.388 213.388Z" fill="black"/>
<path d="M220.178 206.036C238.775 184.214 250 155.918 250 125H229C229 150.118 220.096 173.156 205.271 191.129L220.178 206.036Z" fill="black"/>
<path d="M228.525 115C226.502 93.7858 218.105 74.4306 205.272 58.8706L220.178 43.9643C236.75 63.41 247.468 87.9975 249.606 115H228.525Z" fill="black"/>
<path d="M198.539 51.4609L213.388 36.6117C192.974 16.197 165.531 2.81079 135 0.394165V21.4746C159.728 23.8336 181.929 34.8512 198.539 51.4609Z" fill="black"/>
<path d="M58.8706 44.7285C76.8444 29.9043 99.8824 21 125 21V0C94.082 0 65.7857 11.2251 43.9643 29.8221L58.8706 44.7285Z" fill="black"/>
<path d="M76.3493 138.116C75.8836 138.581 75.8836 139.046 76.3493 139.511C80.5409 142.998 83.3355 146.02 84.7328 148.577C86.5958 152.064 88.4588 154.737 90.3218 156.597C96.6097 160.781 102.781 161.828 108.836 159.736L109.534 148.577C103.712 152.529 98.0068 152.18 92.4177 147.531C91.2532 146.601 89.6812 144.916 87.7019 142.475C85.7226 140.034 83.9177 138.465 82.2875 137.767C82.0547 137.535 81.2396 137.302 79.8423 137.07C78.4452 136.837 77.2807 137.186 76.3493 138.116Z" fill="black"/>
<path d="M111.366 145.202C110.318 146.364 109.561 147.759 109.095 149.386L108.397 160.736L108.361 160.748C108.171 161.991 108.241 164.48 108.572 168.216C108.921 172.168 108.746 174.609 108.048 175.539C107.582 176.701 106.883 177.631 105.952 178.329C105.719 178.561 105.253 178.91 104.554 179.375C103.856 179.84 103.332 180.247 102.982 180.595C102.633 180.944 102.575 181.351 102.808 181.816C103.041 182.513 103.972 182.862 105.602 182.862C109.794 182.862 112.938 181.467 115.034 178.677C115.732 177.515 116.082 176.12 116.082 174.493V157.755C116.082 155.896 116.489 154.559 117.304 153.745C118.119 152.931 118.993 152.408 119.924 152.176V174.144C119.924 176.004 119.75 177.631 119.4 179.026C119.051 180.421 118.76 181.351 118.527 181.816C117.362 183.908 116.664 185.07 116.431 185.303C116.431 185.535 116.78 185.768 117.479 186C121.903 185.768 124.931 184.024 126.561 180.769C127.725 178.212 128.308 175.539 128.308 172.749V151.13H132.849V172.749C132.849 175.538 133.431 178.154 134.595 180.595C135.76 183.036 137.856 184.605 140.883 185.302C142.281 185.767 143.27 185.941 143.852 185.825C144.435 185.709 144.609 185.535 144.377 185.302C144.143 184.14 143.561 182.978 142.63 181.815C141.698 180.653 141.232 178.096 141.232 174.144V152.176C142.164 152.408 143.095 152.931 144.027 153.745C144.959 154.558 145.424 155.895 145.424 157.755V174.493C145.424 176.12 145.774 177.515 146.472 178.677C148.801 181.467 151.945 182.862 155.904 182.862C157.534 182.862 158.465 182.513 158.698 181.816C158.931 181.118 158.698 180.595 158 180.246C157.301 179.898 156.486 179.316 155.554 178.503C154.623 177.689 153.808 176.701 153.109 175.539L152.76 164.903V153.919C152.294 150.199 151.304 147.468 149.79 145.724C148.277 143.981 145.89 142.295 142.629 140.668C149.849 140.203 155.671 138.925 160.095 136.832C166.616 133.578 171.157 129.51 173.719 124.628C176.28 119.746 177.561 113.586 177.561 106.147C177.328 96.8481 174.534 89.4091 169.178 83.8299C169.876 80.8078 170.051 77.5533 169.701 74.0663C169.352 70.5792 168.712 67.5571 167.78 65C162.657 65.2325 158.407 66.2205 155.03 67.9641C151.653 69.7077 149.15 71.1606 147.52 72.3229C134.944 69.5333 122.835 69.6495 111.191 72.6716C105.136 68.0223 98.3825 65.4651 90.9304 65.0002C88.3687 72.4392 88.0194 79.0645 89.8824 84.8762C87.321 87.666 85.3415 90.8041 83.9442 94.2912C82.081 99.8704 81.5569 106.031 82.3722 112.772C83.1873 119.514 85.4579 124.977 89.184 129.161C91.9785 132.183 95.7629 134.682 100.537 136.658C105.311 138.634 111.54 139.971 119.225 140.669C116.897 141.598 115.267 142.296 114.335 142.761C113.403 143.226 112.413 144.039 111.366 145.202Z" fill="black"/>
</svg>
