<svg xmlns="http://www.w3.org/2000/svg" width="222" height="223" viewBox="0 0 222 223" fill="none">
  <style>
    svg {
      fill: #d1d1d1;
    }

    .medium {
      fill: #a9a9a9;
    }

    .dark {
      fill: #494949;
    }

    #arm {
      transform-origin: 50% 80%;
      animation: swing-arm 1s alternate infinite;
    }

    @keyframes swing-arm {
      0% {
        transform: rotate(6deg);
      }

      100% {
        transform: rotate(0deg);
      }
    }

    #loader {
      transform-origin: center center;
      animation: spinner 2s steps(8) infinite;
    }

    @keyframes spinner {
      from {
        transform: rotate(0deg);
      }

      to {
        transform: rotate(360deg);
      }
    }
  </style>
  <g id="octocat">
    <path id="arm" d="M60.3493 124.116C59.8836 124.581 59.8836 125.046 60.3493 125.511C64.5409 128.998 67.3355 132.02 68.7328 134.577C70.5958 138.064 72.4588 140.737 74.3218 142.597C80.6097 146.781 86.7808 147.828 92.8358 145.736L93.5341 134.577C87.7122 138.529 82.0068 138.18 76.4177 133.531C75.2532 132.601 73.6812 130.916 71.7019 128.475C69.7226 126.034 67.9177 124.465 66.2875 123.767C66.0547 123.535 65.2396 123.302 63.8423 123.07C62.4452 122.837 61.2807 123.186 60.3493 124.116Z" />
    <path id="body" d="M95.3655 131.202C94.3178 132.364 93.5608 133.759 93.0951 135.386L92.3968 146.736L92.3613 146.748C92.1712 147.991 92.2413 150.48 92.5716 154.216C92.9209 158.168 92.7463 160.609 92.0477 161.539C91.5817 162.701 90.8833 163.631 89.9518 164.329C89.7189 164.561 89.2531 164.91 88.5545 165.375C87.8558 165.84 87.332 166.247 86.9825 166.595C86.633 166.944 86.5747 167.351 86.8077 167.816C87.0406 168.513 87.9721 168.862 89.6023 168.862C93.7939 168.862 96.9377 167.467 99.0337 164.677C99.7323 163.515 100.082 162.12 100.082 160.493V143.755C100.082 141.896 100.489 140.559 101.304 139.745C102.119 138.931 102.993 138.408 103.924 138.176V160.144C103.924 162.004 103.75 163.631 103.4 165.026C103.051 166.421 102.76 167.351 102.527 167.816C101.362 169.908 100.664 171.07 100.431 171.303C100.431 171.535 100.78 171.768 101.479 172C105.903 171.768 108.931 170.024 110.561 166.769C111.725 164.212 112.308 161.539 112.308 158.749V137.13H116.849V158.749C116.849 161.538 117.431 164.154 118.595 166.595C119.76 169.036 121.856 170.605 124.883 171.302C126.281 171.767 127.27 171.941 127.852 171.825C128.435 171.709 128.609 171.535 128.377 171.302C128.143 170.14 127.561 168.978 126.63 167.815C125.698 166.653 125.232 164.096 125.232 160.144V138.176C126.164 138.408 127.095 138.931 128.027 139.745C128.959 140.558 129.424 141.895 129.424 143.755V160.493C129.424 162.12 129.774 163.515 130.472 164.677C132.801 167.467 135.945 168.862 139.904 168.862C141.534 168.862 142.465 168.513 142.698 167.816C142.931 167.118 142.698 166.595 142 166.246C141.301 165.898 140.486 165.316 139.554 164.503C138.623 163.689 137.808 162.701 137.109 161.539L136.76 150.903V139.919C136.294 136.199 135.304 133.468 133.79 131.724C132.277 129.981 129.89 128.295 126.629 126.668C133.849 126.203 139.671 124.925 144.095 122.832C150.616 119.578 155.157 115.51 157.719 110.628C160.28 105.746 161.561 99.5858 161.561 92.1469C161.328 82.8481 158.534 75.4091 153.178 69.8299C153.876 66.8078 154.051 63.5533 153.701 60.0663C153.352 56.5792 152.712 53.5571 151.78 51C146.657 51.2325 142.407 52.2205 139.03 53.9641C135.653 55.7077 133.15 57.1606 131.52 58.3229C118.944 55.5333 106.835 55.6495 95.1908 58.6716C89.136 54.0223 82.3825 51.4651 74.9304 51.0002C72.3687 58.4392 72.0194 65.0645 73.8824 70.8762C71.321 73.666 69.3415 76.8041 67.9442 80.2912C66.081 85.8704 65.5569 92.0308 66.3722 98.7724C67.1873 105.514 69.4579 110.977 73.184 115.161C75.9785 118.183 79.7629 120.682 84.5369 122.658C89.3109 124.634 95.5403 125.971 103.225 126.669C100.897 127.598 99.2665 128.296 98.3348 128.761C97.4033 129.226 96.4133 130.039 95.3655 131.202Z" />
  </g>
  <g id="loader">
    <path class="dark" d="M197.228 181.919C210.783 165.437 219.704 145 222 122.6H197.033C194.968 138.175 188.774 152.446 179.586 164.277L197.228 181.919Z" />
    <path class="dark" d="M180.855 198.109L163.186 180.441C151.329 189.377 137.108 195.343 121.627 197.233V222.174C143.932 220.067 164.326 211.394 180.855 198.109Z" />
    <path  d="M57.8103 42.5014C69.4162 33.4878 83.3711 27.355 98.6015 25.1765V0.181553C76.5489 2.61934 56.4332 11.4834 40.1685 24.8596L57.8103 42.5014Z" />
    <path d="M23.9781 41.2326L41.6465 58.901C32.8811 70.5315 26.9735 84.4371 24.9672 99.5743H1.23631e-06C2.25074 77.6152 10.869 57.5424 23.9781 41.2326Z" />
    <path d="M121.627 0C143.932 2.10732 164.326 10.7802 180.855 24.0653L163.186 41.7337C151.329 32.7976 137.108 26.8317 121.627 24.9417V0Z" />
    <path d="M24.9673 122.6C26.9735 137.737 32.8811 151.643 41.6465 163.273L23.9781 180.942C10.869 164.632 2.25074 144.559 0 122.6H24.9673Z" />
    <path d="M57.8104 179.673L40.1685 197.315C56.4332 210.691 76.5489 219.555 98.6015 221.993V196.998C83.3711 194.819 69.4163 188.687 57.8104 179.673Z" />
    <path class="medium" d="M197.228 40.2557L179.586 57.8976C188.774 69.7281 194.968 83.9993 197.033 99.5743H222C219.704 77.1748 210.783 56.7379 197.228 40.2557Z" />
  </g>
</svg>