<?xml version="1.0" encoding="utf-8"?><svg xmlns="http://www.w3.org/2000/svg" xmlns:xlink="http://www.w3.org/1999/xlink"><symbol viewBox="0 0 48 48" id="about" xmlns="http://www.w3.org/2000/svg"><path fill="#2196F3" d="M37 40H11l-6 6V12c0-3.3 2.7-6 6-6h26c3.3 0 6 2.7 6 6v22c0 3.3-2.7 6-6 6z"/><g fill="#fff"><path d="M22 20h4v11h-4z"/><circle cx="24" cy="15" r="2"/></g></symbol><symbol viewBox="0 0 48 48" id="approval" xmlns="http://www.w3.org/2000/svg"><path fill="#8BC34A" d="M24 3l4.7 3.6 5.8-.8 2.2 5.5 5.5 2.2-.8 5.8L45 24l-3.6 4.7.8 5.8-5.5 2.2-2.2 5.5-5.8-.8L24 45l-4.7-3.6-5.8.8-2.2-5.5-5.5-2.2.8-5.8L3 24l3.6-4.7-.8-5.8 5.5-2.2 2.2-5.5 5.8.8z"/><path fill="#CCFF90" d="M34.6 14.6L21 28.2l-5.6-5.6-2.8 2.8 8.4 8.4 16.4-16.4z"/></symbol><symbol viewBox="0 0 48 48" id="automatic" xmlns="http://www.w3.org/2000/svg"><path fill="#3F51B5" d="M39 43H9c-2.2 0-4-1.8-4-4V9c0-2.2 1.8-4 4-4h30c2.2 0 4 1.8 4 4v30c0 2.2-1.8 4-4 4z"/><path fill="#B3E5FC" d="M33.6 25.4c.1-.4.1-.9.1-1.4s0-.9-.1-1.4l2.8-2c.3-.2.4-.6.2-.9l-2.7-4.6c-.2-.3-.5-.4-.8-.3L30 16.3c-.7-.6-1.5-1-2.4-1.4l-.3-3.4c0-.3-.3-.6-.6-.6h-5.3c-.3 0-.6.3-.6.6l-.4 3.5c-.9.3-1.6.8-2.4 1.4L14.9 15c-.3-.1-.7 0-.8.3l-2.7 4.6c-.2.3-.1.7.2.9l2.8 2c-.1.4-.1.9-.1 1.4s0 .9.1 1.4l-2.8 2c-.3.2-.4.6-.2.9l2.7 4.6c.2.3.5.4.8.3L18 32c.7.6 1.5 1 2.4 1.4l.3 3.4c0 .3.3.6.6.6h5.3c.3 0 .6-.3.6-.6l.3-3.4c.9-.3 1.6-.8 2.4-1.4l3.1 1.4c.3.1.7 0 .8-.3l2.7-4.6c.2-.3.1-.7-.2-.9l-2.7-2.2zM24 29c-2.8 0-5-2.2-5-5s2.2-5 5-5 5 2.2 5 5-2.2 5-5 5z"/></symbol><symbol viewBox="0 0 48 48" id="biotech" xmlns="http://www.w3.org/2000/svg"><path fill="#AD1457" d="M36 4c0 9.3-6 13.2-12.8 17.8C16.1 26.5 8 31.8 8 44h4c0-10.1 6.5-14.4 13.4-18.9C32.2 20.6 40 15.4 40 4h-4z"/><path fill="#AD1457" d="M38 41H11c-.6 0-1-.4-1-1s.4-1 1-1h27c.6 0 1 .4 1 1s-.4 1-1 1zM36 37H12c-.6 0-1-.4-1-1s.4-1 1-1h24c.6 0 1 .4 1 1s-.4 1-1 1zM34 33H14c-.6 0-1-.4-1-1s.4-1 1-1h20c.6 0 1 .4 1 1s-.4 1-1 1zM29 29H19c-.6 0-1-.4-1-1s.4-1 1-1h10c.6 0 1 .4 1 1s-.4 1-1 1z"/><path fill="#E91E63" d="M37 9H10c-.6 0-1-.4-1-1s.4-1 1-1h27c.6 0 1 .4 1 1s-.4 1-1 1zM36 13H12c-.6 0-1-.4-1-1s.4-1 1-1h24c.6 0 1 .4 1 1s-.4 1-1 1zM34 17H14c-.6 0-1-.4-1-1s.4-1 1-1h20c.6 0 1 .4 1 1s-.4 1-1 1zM29 21H19c-.6 0-1-.4-1-1s.4-1 1-1h10c.6 0 1 .4 1 1s-.4 1-1 1z"/><path fill="#E91E63" d="M40 44h-4c0-10.1-6.5-14.4-13.4-18.9C15.8 20.6 8 15.4 8 4h4c0 9.3 6 13.2 12.8 17.8C31.9 26.5 40 31.8 40 44z"/></symbol><symbol viewBox="0 0 48 48" id="bookmark" xmlns="http://www.w3.org/2000/svg"><path fill="#F44336" d="M37 43l-13-6-13 6V9c0-2.2 1.8-4 4-4h18c2.2 0 4 1.8 4 4v34z"/></symbol></svg>